<svg width="8" height="6" viewBox="0 0 8 6" fill="none" xmlns="http://www.w3.org/2000/svg">
<path fill-rule="evenodd" clip-rule="evenodd" d="M7.82423 0.175968C7.93678 0.288546 8 0.441214 8 0.600399C8 0.759584 7.93678 0.912252 7.82423 1.02483L3.32458 5.52448C3.26512 5.58396 3.19452 5.63114 3.11682 5.66333C3.03912 5.69552 2.95584 5.71208 2.87174 5.71208C2.78763 5.71208 2.70435 5.69552 2.62665 5.66333C2.54895 5.63114 2.47835 5.58396 2.41889 5.52448L0.183273 3.28926C0.125935 3.23388 0.0802012 3.16764 0.0487386 3.0944C0.0172761 3.02116 0.000715333 2.94238 2.26663e-05 2.86267C-0.000670001 2.78296 0.0145194 2.70391 0.0447043 2.63013C0.0748893 2.55635 0.119465 2.48933 0.175832 2.43296C0.232198 2.37659 0.299226 2.33202 0.373004 2.30183C0.446782 2.27165 0.525832 2.25646 0.605543 2.25715C0.685254 2.25784 0.764029 2.2744 0.837271 2.30587C0.910514 2.33733 0.976757 2.38306 1.03213 2.4404L2.87154 4.2798L6.97497 0.175968C7.03072 0.120181 7.09692 0.0759272 7.16978 0.0457339C7.24264 0.0155406 7.32073 0 7.3996 0C7.47847 0 7.55657 0.0155406 7.62943 0.0457339C7.70229 0.0759272 7.76848 0.120181 7.82423 0.175968Z" fill="#4B23DB"/>
</svg>
