<svg width="570" height="142" viewBox="0 0 570 142" fill="none" xmlns="http://www.w3.org/2000/svg">
<path d="M569.131 82.6864C569.131 84.7068 569.001 86.5316 568.74 88.161H527.583C527.909 92.4625 529.505 95.9167 532.373 98.5237C535.241 101.131 538.76 102.434 542.931 102.434C548.927 102.434 553.163 99.9249 555.64 94.9065H567.665C566.035 99.8597 563.07 103.933 558.768 107.127C554.532 110.255 549.253 111.819 542.931 111.819C537.782 111.819 533.155 110.679 529.049 108.398C525.008 106.051 521.815 102.793 519.469 98.6214C517.187 94.3851 516.047 89.4971 516.047 83.9573C516.047 78.4175 517.155 73.562 519.371 69.3909C521.652 65.1545 524.813 61.8958 528.854 59.6147C532.96 57.3337 537.652 56.1931 542.931 56.1931C548.015 56.1931 552.544 57.3011 556.52 59.517C560.496 61.7329 563.591 64.8613 565.807 68.9021C568.023 72.8777 569.131 77.4724 569.131 82.6864ZM557.498 79.167C557.432 75.061 555.966 71.7697 553.098 69.2931C550.231 66.8165 546.679 65.5782 542.442 65.5782C538.597 65.5782 535.306 66.8165 532.569 69.2931C529.831 71.7045 528.202 74.9958 527.68 79.167H557.498Z" fill="white"/>
<path d="M496.39 66.165V95.9821C496.39 98.0025 496.846 99.4689 497.759 100.381C498.736 101.229 500.366 101.652 502.647 101.652H509.49V110.94H500.691C495.673 110.94 491.828 109.766 489.156 107.42C486.483 105.074 485.147 101.261 485.147 95.9821V66.165H478.793V57.0732H485.147V43.6799H496.39V57.0732H509.49V66.165H496.39Z" fill="white"/>
<path d="M413.417 83.7617C413.417 78.3523 414.525 73.562 416.741 69.3909C419.022 65.2197 422.085 61.9936 425.93 59.7125C429.841 57.3662 434.142 56.1931 438.835 56.1931C443.071 56.1931 446.753 57.0404 449.882 58.7349C453.075 60.3643 455.617 62.4172 457.507 64.8939V57.073H468.75V110.939H457.507V102.923C455.617 105.465 453.043 107.583 449.784 109.277C446.525 110.972 442.81 111.819 438.639 111.819C434.012 111.819 429.775 110.646 425.93 108.3C422.085 105.888 419.022 102.564 416.741 98.3281C414.525 94.0267 413.417 89.1712 413.417 83.7617ZM457.507 83.9573C457.507 80.2423 456.725 77.0162 455.161 74.2789C453.662 71.5416 451.674 69.456 449.197 68.0222C446.721 66.5884 444.049 65.8715 441.181 65.8715C438.313 65.8715 435.641 66.5884 433.164 68.0222C430.688 69.3909 428.667 71.4438 427.103 74.1812C425.604 76.8533 424.855 80.0468 424.855 83.7617C424.855 87.4767 425.604 90.7354 427.103 93.5378C428.667 96.3403 430.688 98.4911 433.164 99.9901C435.706 101.424 438.378 102.141 441.181 102.141C444.049 102.141 446.721 101.424 449.197 99.9901C451.674 98.5563 453.662 96.4707 455.161 93.7334C456.725 90.9309 457.507 87.6722 457.507 83.9573Z" fill="white"/>
<path d="M347.161 83.7621C347.161 78.3526 348.269 73.5623 350.485 69.3912C352.766 65.22 355.829 61.9939 359.674 59.7128C363.585 57.3666 367.919 56.1934 372.676 56.1934C376.196 56.1934 379.65 56.9755 383.039 58.5397C386.493 60.0387 389.23 62.0591 391.251 64.6009V38.5964H402.493V110.94H391.251V102.825C389.426 105.432 386.884 107.583 383.626 109.278C380.432 110.972 376.75 111.819 372.579 111.819C367.886 111.819 363.585 110.646 359.674 108.3C355.829 105.889 352.766 102.565 350.485 98.3285C348.269 94.027 347.161 89.1715 347.161 83.7621ZM391.251 83.9576C391.251 80.2427 390.469 77.0165 388.905 74.2792C387.406 71.5419 385.418 69.4563 382.941 68.0225C380.465 66.5887 377.792 65.8718 374.925 65.8718C372.057 65.8718 369.385 66.5887 366.908 68.0225C364.432 69.3912 362.411 71.4442 360.847 74.1815C359.348 76.8536 358.599 80.0471 358.599 83.7621C358.599 87.477 359.348 90.7357 360.847 93.5382C362.411 96.3406 364.432 98.4914 366.908 99.9904C369.45 101.424 372.122 102.141 374.925 102.141C377.792 102.141 380.465 101.424 382.941 99.9904C385.418 98.5566 387.406 96.471 388.905 93.7337C390.469 90.9312 391.251 87.6725 391.251 83.9576Z" fill="white"/>
<path d="M330.769 49.9367C328.748 49.9367 327.054 49.2524 325.685 47.8837C324.316 46.5151 323.632 44.8205 323.632 42.8001C323.632 40.7797 324.316 39.0852 325.685 37.7166C327.054 36.3479 328.748 35.6636 330.769 35.6636C332.724 35.6636 334.386 36.3479 335.754 37.7166C337.123 39.0852 337.807 40.7797 337.807 42.8001C337.807 44.8205 337.123 46.5151 335.754 47.8837C334.386 49.2524 332.724 49.9367 330.769 49.9367ZM336.243 57.0733V110.94H325.099V57.0733H336.243Z" fill="white"/>
<path d="M310.394 57.0735V110.94H299.249V104.585C297.49 106.801 295.176 108.561 292.308 109.864C289.506 111.103 286.508 111.722 283.314 111.722C279.078 111.722 275.265 110.842 271.876 109.082C268.552 107.323 265.913 104.716 263.958 101.261C262.068 97.8073 261.123 93.6361 261.123 88.7481V57.0735H272.17V87.0861C272.17 91.909 273.375 95.6239 275.787 98.2309C278.198 100.773 281.489 102.044 285.661 102.044C289.832 102.044 293.123 100.773 295.534 98.2309C298.011 95.6239 299.249 91.909 299.249 87.0861V57.0735H310.394Z" fill="white"/>
<path d="M182.284 76.8212C182.284 70.1734 183.816 64.21 186.879 58.9309C190.007 53.6518 194.211 49.5458 199.49 46.613C204.834 43.615 210.667 42.116 216.989 42.116C224.224 42.116 230.643 43.9083 236.248 47.4928C241.918 51.0122 246.024 56.0306 248.566 62.548H235.173C233.413 58.9635 230.969 56.2913 227.841 54.5316C224.712 52.7719 221.095 51.8921 216.989 51.8921C212.492 51.8921 208.484 52.9023 204.965 54.9227C201.445 56.9431 198.675 59.8433 196.655 63.6234C194.7 67.4035 193.722 71.8028 193.722 76.8212C193.722 81.8396 194.7 86.2388 196.655 90.0189C198.675 93.799 201.445 96.7318 204.965 98.8174C208.484 100.838 212.492 101.848 216.989 101.848C221.095 101.848 224.712 100.968 227.841 99.2084C230.969 97.4487 233.413 94.7766 235.173 91.192H248.566C246.024 97.7094 241.918 102.728 236.248 106.247C230.643 109.767 224.224 111.526 216.989 111.526C210.602 111.526 204.769 110.06 199.49 107.127C194.211 104.129 190.007 99.9905 186.879 94.7114C183.816 89.4323 182.284 83.4689 182.284 76.8212Z" fill="white"/>
<rect width="141.585" height="141.585" rx="33.7107" fill="white"/>
<path d="M79.8036 102.277C78.8209 102.988 77.1945 103.487 76.1548 104.186C62.9018 110.279 47.1197 108.028 36.1208 98.2322C31.9733 94.5389 28.9522 90.0615 26.7928 84.9461C18.6564 65.6818 28.6634 43.1773 48.6662 36.2267C58.5078 32.8084 70.5087 33.8482 79.3459 39.4029C79.4726 39.4817 79.637 39.484 79.7454 39.5604C80.4873 40.0809 80.9107 41.1503 80.8137 42.0348C80.7498 42.6169 80.534 43.0951 80.1494 43.5459C77.6009 46.5328 74.1609 49.1943 71.5336 52.1617C70.7427 52.7541 69.6402 52.8294 68.7397 52.5041C67.8997 52.2005 67.1201 51.8091 66.2311 51.5431C60.0531 49.7022 53.0751 51.138 48.0385 55.1497C41.9644 59.9866 39.2218 68.1687 41.0479 75.6512C43.8704 87.2253 56.0528 93.886 67.3724 89.9371C68.8846 89.4086 70.051 88.4454 71.5918 89.7898C74.6494 92.4571 77.3943 95.8868 80.4222 98.6339C81.1378 99.7261 80.8719 101.505 79.8036 102.277Z" fill="#4B23DB"/>
<path d="M92.9737 64.3674V77.6028C92.7606 78.434 92.3151 79.0054 91.4807 79.2572H80.0192C79.7577 79.2313 79.0765 78.9231 78.8829 78.7407C78.7586 78.6228 78.3857 78.0014 78.3647 77.8465V64.2076C78.6117 63.2392 79.3477 62.7146 80.3436 62.6371C83.7751 62.847 87.5181 62.3676 90.9141 62.6371C92.0052 62.7227 92.7606 63.2682 92.9737 64.3674Z" fill="#4B23DB"/>
<path d="M123.458 77.5255C123.345 78.0613 123.189 78.4503 122.761 78.8038C122.467 79.0443 122.128 79.217 121.722 79.2558C118.179 79.5947 114.105 78.9927 110.505 79.2574C109.75 79.1347 109.101 78.5827 108.851 77.8467V64.1271C109.142 63.2361 109.753 62.8052 110.669 62.6373C114.134 62.8391 117.887 62.3775 121.32 62.6373C122.475 62.7245 123.181 63.2216 123.457 64.3692V77.5255H123.458Z" fill="#4B23DB"/>
<path d="M109.182 80.5794L109.132 92.1507C108.85 92.6946 108.562 93.1692 107.962 93.4L94.1308 93.4516C93.921 93.4306 93.5675 93.2918 93.3981 93.1756C93.1011 92.9722 92.6072 92.3573 92.6411 91.9586L92.6443 80.4229C92.8138 79.5545 93.5804 78.9234 94.4569 78.8475C98.576 78.4924 103.195 79.1203 107.366 78.8475C107.875 78.8766 108.699 79.3431 108.942 79.7724C109.055 79.9742 109.04 80.3438 109.182 80.5794Z" fill="#4B23DB"/>
<path d="M109.182 49.9345V61.07C109.098 62.0271 108.725 62.6808 107.77 62.9665H94.1309C93.4191 62.8923 92.8283 62.2127 92.6411 61.5542L92.6831 49.7344C92.9978 48.9144 93.6612 48.448 94.5376 48.3624C98.6406 48.6223 103.15 48.0267 107.205 48.3624C107.728 48.406 108.294 48.6207 108.661 49.0048C108.746 49.0936 108.743 49.2195 108.804 49.3034C108.929 49.4745 109.182 49.6343 109.182 49.9345Z" fill="#4B23DB"/>
</svg>
